# xmcd
#
# Track frame offsets: 
#        150
#        17979
#        40712
#        65520
#        84456
#        101998
#        121197
#        142705
#        162677
#        182585
#        200141
#        213317
#        229575
#        245888
#        265631
#        285931
#
# Disc length: 4160 seconds
#
# Revision: 0
# Processed by: cddbd v1.5PL3 Copyright (c) Steve Scherf et al.
# Submitted via: ExactAudioCopy v0.95a3
#
DISCID=e2103e10
DTITLE=Blue Elephant Club - Thank you!
DYEAR=2004
DGENRE=Blues
TTITLE0=Chameleon
TTITLE1=Ain't no sunshine
TTITLE2=Thank you
TTITLE3=The thrill is gone
TTITLE4=Worksong
TTITLE5=I'd rather go blind
TTITLE6=As the years go passing by
TTITLE7=Sweet home Chicago
TTITLE8=Born under a bad sign
TTITLE9=You know it ain't right
TTITLE10=My girl
TTITLE11=Soul man
TTITLE12=The bear
TTITLE13=No chance blues
TTITLE14=Little wing
TTITLE15=Mustang Sally
EXTD=
EXTT0=
EXTT1=
EXTT2=
EXTT3=
EXTT4=
EXTT5=
EXTT6=
EXTT7=
EXTT8=
EXTT9=
EXTT10=
EXTT11=
EXTT12=
EXTT13=
EXTT14=
EXTT15=
PLAYORDER=
